# xmcd
#
# Track frame offsets: 
#        150
#        19470
#        41935
#        63047
#        86297
#        107402
#        128415
#        146460
#        167465
#        186412
#
# Disc length: 2866 seconds
#
# Revision: 6
# Processed by: cddbd v1.5.2PL0 Copyright (c) Steve Scherf et al.
# Submitted via: ExactAudioCopy v1.0b1
#
DISCID=7a0b300a
DTITLE=羽泉 - 热爱
DYEAR=2001
DGENRE=Pop
TTITLE0=选择牺牲
TTITLE1=深呼吸
TTITLE2=心似狂潮
TTITLE3=隔世情人
TTITLE4=狂想曲
TTITLE5=烫心
TTITLE6=问
TTITLE7=我愿意
TTITLE8=Good-bye
TTITLE9=忘·记
EXTD=YEAR: 2001
EXTT0=
EXTT1=
EXTT2=
EXTT3=
EXTT4=
EXTT5=
EXTT6=
EXTT7=
EXTT8=
EXTT9=
PLAYORDER=
